<svg width="400" height="400" viewBox="0 0 400 400" fill="none" xmlns="http://www.w3.org/2000/svg">
  <!-- Karnataka State Emblem Watermark -->
  <circle cx="200" cy="200" r="190" fill="none" stroke="#1E3A8A" stroke-width="1" stroke-opacity="0.1"/>
  
  <!-- Ashoka Pillar -->
  <rect x="195" y="80" width="10" height="240" fill="#1E3A8A" fill-opacity="0.05"/>
  <circle cx="200" cy="70" r="30" fill="#1E3A8A" fill-opacity="0.05"/>
  
  <!-- Lions -->
  <path d="M140 120C130 130 120 150 130 170C140 190 160 190 170 180" stroke="#1E3A8A" stroke-width="3" stroke-opacity="0.05" fill="none"/>
  <path d="M260 120C270 130 280 150 270 170C260 190 240 190 230 180" stroke="#1E3A8A" stroke-width="3" stroke-opacity="0.05" fill="none"/>
  
  <!-- Wheel -->
  <circle cx="200" cy="200" r="50" stroke="#1E3A8A" stroke-width="2" stroke-opacity="0.05" fill="none"/>
  <circle cx="200" cy="200" r="40" stroke="#1E3A8A" stroke-width="1" stroke-opacity="0.05" fill="none"/>
  
  <!-- Spokes -->
  <line x1="200" y1="150" x2="200" y2="250" stroke="#1E3A8A" stroke-width="1" stroke-opacity="0.05"/>
  <line x1="150" y1="200" x2="250" y2="200" stroke="#1E3A8A" stroke-width="1" stroke-opacity="0.05"/>
  <line x1="164" y1="164" x2="236" y2="236" stroke="#1E3A8A" stroke-width="1" stroke-opacity="0.05"/>
  <line x1="164" y1="236" x2="236" y2="164" stroke="#1E3A8A" stroke-width="1" stroke-opacity="0.05"/>
  
  <!-- Text -->
  <path d="M80 300C120 280 280 280 320 300" stroke="#1E3A8A" stroke-width="1" stroke-opacity="0.05" fill="none"/>
  <text x="200" y="330" text-anchor="middle" font-family="Arial" font-size="16" fill="#1E3A8A" fill-opacity="0.05">ಕರ್ನಾಟಕ ಸರ್ಕಾರ</text>
  
  <!-- KCFSIN Text -->
  <text x="200" y="360" text-anchor="middle" font-family="Arial" font-size="14" fill="#1E3A8A" fill-opacity="0.05">KCFSIN</text>
</svg>