<svg width="300" height="400" viewBox="0 0 300 400" fill="none" xmlns="http://www.w3.org/2000/svg">
  <!-- Template 3 Preview -->
  <rect width="300" height="400" fill="white"/>
  <rect x="5" y="5" width="290" height="390" stroke="#1E3A8A" stroke-width="2"/>
  
  <!-- Watermark -->
  <circle cx="150" cy="200" r="80" fill="#1E3A8A" fill-opacity="0.03"/>
  <path d="M130 170C125 175 120 185 125 195C130 205 140 205 145 200" stroke="#1E3A8A" stroke-width="2" stroke-opacity="0.05" fill="none"/>
  <path d="M170 170C175 175 180 185 175 195C170 205 160 205 155 200" stroke="#1E3A8A" stroke-width="2" stroke-opacity="0.05" fill="none"/>
  <circle cx="150" cy="200" r="25" stroke="#1E3A8A" stroke-width="1" stroke-opacity="0.05" fill="none"/>
  <text x="150" y="240" text-anchor="middle" font-family="Arial" font-size="10" fill="#1E3A8A" fill-opacity="0.05">KCFSIN</text>
  
  <!-- Header -->
  <rect x="20" y="20" width="260" height="60" fill="white" fill-opacity="0.9"/>
  <circle cx="50" cy="50" r="20" fill="#1E3A8A" fill-opacity="0.1"/>
  <rect x="80" y="40" width="180" height="8" rx="4" fill="#1E3A8A" fill-opacity="0.7"/>
  <rect x="80" y="55" width="140" height="6" rx="3" fill="#1E3A8A" fill-opacity="0.5"/>
  
  <!-- Title -->
  <rect x="40" y="100" width="220" height="12" rx="6" fill="#1E3A8A"/>
  
  <!-- Reference Numbers -->
  <rect x="30" y="130" width="100" height="8" rx="4" fill="#1E3A8A" fill-opacity="0.7"/>
  <rect x="170" y="130" width="100" height="8" rx="4" fill="#1E3A8A" fill-opacity="0.7"/>
  
  <!-- Content -->
  <rect x="30" y="160" width="240" height="6" rx="3" fill="#1E3A8A" fill-opacity="0.3"/>
  <rect x="30" y="175" width="240" height="6" rx="3" fill="#1E3A8A" fill-opacity="0.3"/>
  <rect x="30" y="190" width="180" height="6" rx="3" fill="#1E3A8A" fill-opacity="0.3"/>
  
  <!-- Section -->
  <rect x="30" y="215" width="100" height="8" rx="4" fill="#1E3A8A" fill-opacity="0.6"/>
  <rect x="30" y="235" width="240" height="6" rx="3" fill="#1E3A8A" fill-opacity="0.3"/>
  <rect x="30" y="250" width="240" height="6" rx="3" fill="#1E3A8A" fill-opacity="0.3"/>
  <rect x="30" y="265" width="240" height="6" rx="3" fill="#1E3A8A" fill-opacity="0.3"/>
  <rect x="30" y="280" width="180" height="6" rx="3" fill="#1E3A8A" fill-opacity="0.3"/>
  
  <!-- Footer -->
  <rect x="30" y="320" width="180" height="6" rx="3" fill="#1E3A8A" fill-opacity="0.4"/>
  
  <!-- Signature -->
  <rect x="170" y="350" width="100" height="8" rx="4" fill="#1E3A8A" fill-opacity="0.6"/>
  <rect x="170" y="365" width="80" height="6" rx="3" fill="#1E3A8A" fill-opacity="0.4"/>
  
  <!-- Seal -->
  <circle cx="60" cy="360" r="25" stroke="#1E3A8A" stroke-opacity="0.5" stroke-width="1" stroke-dasharray="4 2"/>
</svg>